<svg xmlns="http://www.w3.org/2000/svg" viewBox="0 0 659.11 327.61" aria-hidden="true"><path d="M401,23.16c0-3.25,3-13.11,3-13.11s-18.31,10.78-18.31,23c0,8.55,5.41,13.64,5.41,15.77,0,2.55-11.06,7.64-44.19,7.64L322.8,96.53l-8.26,5.3-10,18.89H285.77l11.39-18.52-2.73-5.79,27.42-41.12c-42.86,0-48.43-5.15-48.43-6,0-2.41,18.66-10.91,18.66-25.33,0-6.69-6.62-14.73-6.62-14.73C282.28,37.2,240,30.52,240,62.29c0,13,15.83,18.58,31.46,19.69l-5.33,8c-2,3-.43,6.38,2.05,11.38l-10.5,16.85s-4.84,3.48-5.89,5.51c-2.18,4.29,2.34,10.7,9.54,22.5H312.5c17.21-9.73,24.3-13.73,24.3-17.79l-.29-4.24,9.84-17.2c2.57-1.17,8.9-4.37,11.57-8.71l9-14.63c25.71-.48,52.63-10.78,52.63-32.82C419.54,35.93,401,34,401,23.16M365,80.35l-9.92,16.16c-2.72,4.42-11.09,7.86-11.09,7.86l-10.87,19,.35,4.9c.15,2.65-16.84,11.69-22,14.69H263.18c-1.76-3-10-14.81-8.5-17.78.6-1.15,3-2.82,5.47-4.8l11.77-18.9c-2.48-5-4.19-8.07-3.08-9.73l8.61-12.85c-9.69,0-34.18-2.33-34.18-16.62,0-26.4,37.31-25.12,43.33-45.37a14.56,14.56,0,0,1,2.2,7c0,13.52-18.69,19.73-18.69,25.25,0,7.71,26,9.39,45.6,9.39l-25,37.55,2.77,5.86-13.55,22h26.59L317,104.13l8.19-5.25,23.53-39.12c32,0,45.62-5.2,45.62-10.93,0-3.81-5.41-7.77-5.41-15.77s9.45-14.85,9.45-14.85c-4.82,18.11,17.85,18.1,17.85,32.57,0,20.37-27.26,29.57-51.22,29.57" style="fill:#fff"></path><path d="M404.92,23.16c0-5.78,5.71-22.86,5.71-22.86s-28.88,16-28.88,32.76c0,8.07,4.62,14.75,4.62,14.75-8.48,3.93-25.38,4.74-41.7,4.74L319.91,93.72l-8.36,5.37-9.41,17.71h-9.35l8.83-14.36-2.69-5.7,30.26-45.37c-34.29,0-41.38-1.09-49.08-3.06,0,0,15.9-10.16,15.9-24.37C296,14.49,284.1,0,284.1,0l-4.42,14.87C274.9,31,236.05,30.8,236.05,62.29c0,13.79,13.18,20.59,28.51,22.89l-1.71,2.56c-2.88,4.3-1.37,8.71.83,13.33l-9,14.42s-4.93,3.44-6.41,6.37c-3.08,6.06.91,12.41,10.79,28.13h54.64c21.43-12.12,27-15.26,27-22.11,0-.06-.11-1.51-.2-2.83L349.14,110c3.42-1.68,9.27-5,12.12-9.69l7.88-12.82c26.91-1.07,54.33-12.63,54.33-36.68,0-16.33-18.55-20.41-18.55-27.62m-38,60.43-9,14.64c-2.67,4.34-9,7.54-11.57,8.71l-9.84,17.2.29,4.24c0,4.05-7.09,8.07-24.3,17.79H261.31c-7.2-11.8-11.72-18.21-9.54-22.5,1-2,5.89-5.51,5.89-5.51l10.5-16.85c-2.48-5-4.09-8.35-2.05-11.38l5.33-8C255.81,80.87,240,75.3,240,62.29c0-31.77,42.3-25.09,45.48-53.08,0,0,6.62,8,6.62,14.73,0,14.42-18.66,22.92-18.66,25.33,0,.88,5.57,6,48.43,6L294.43,96.41l2.73,5.78-11.4,18.53h18.73l10-18.89,8.27-5.3,24.09-40.06c33.13,0,44.19-5.09,44.19-7.64,0-2.13-5.41-7.22-5.41-15.76,0-12.24,18.31-23,18.31-23s-3,9.86-3,13.11c0,10.86,18.53,12.77,18.53,27.62,0,22-26.93,32.34-52.63,32.81" style="fill:#cfc493"></path><path d="M398.41,18.21S389,25.14,389,33.06s5.41,12,5.41,15.77c0,5.73-13.65,10.93-45.62,10.93L325.22,98.88,317,104.14,306.47,124H279.88l13.55-22-2.77-5.86,25-37.55c-19.64,0-45.6-1.68-45.6-9.39,0-5.52,18.69-11.73,18.69-25.25a14.56,14.56,0,0,0-2.2-7c-6,20.25-43.33,19-43.33,45.37,0,14.29,24.49,16.62,34.18,16.62l-8.61,12.85c-1.11,1.66.6,4.69,3.08,9.73l-11.77,18.9c-2.49,2-4.87,3.65-5.46,4.8-1.54,3,6.73,14.77,8.49,17.78h48.31c5.18-3,22.17-12,22-14.69l-.35-4.9,10.87-19s8.37-3.44,11.09-7.86L365,80.35c24,0,51.22-9.2,51.22-29.57,0-14.47-22.66-14.46-17.85-32.57" style="fill:#006747"></path><path d="M333.6,142.25a3.5,3.5,0,0,0-3.49,3.5,3.43,3.43,0,0,0,1,2.5,3.49,3.49,0,0,0,4.95,0,3.55,3.55,0,0,0,0-5,3.38,3.38,0,0,0-2.48-1m2.13,5.66a3,3,0,0,1-4.27,0,3.08,3.08,0,0,1,0-4.3,3,3,0,0,1,4.26,0,3.07,3.07,0,0,1,0,4.3" style="fill:#cfc493"></path><path d="M335.19,144.92a1,1,0,0,0-.6-1,2.74,2.74,0,0,0-1-.14h-1.35v3.86h.67v-1.52h.54a1.64,1.64,0,0,1,.75.12,1,1,0,0,1,.37.89v.43s0,0,0,0,0,0,0,0h.64l0,0a.63.63,0,0,1,0-.2c0-.1,0-.2,0-.29v-.28a1.09,1.09,0,0,0-.21-.6,1,1,0,0,0-.65-.38,1.61,1.61,0,0,0,.55-.18.86.86,0,0,0,.38-.77m-1.06.67a2.11,2.11,0,0,1-.65.08h-.62v-1.39h.59a1.86,1.86,0,0,1,.82.14.61.61,0,0,1,.26.57.59.59,0,0,1-.4.6" style="fill:#cfc493"></path><path d="M177.07,201.43v21.65c0,3,1.28,4.5,4.16,4.5s4.2-1.54,4.2-4.5V201.43h5.91v21.69c0,6.82-4,9.7-10.11,9.7s-10.08-2.88-10.08-9.7V201.43Z" style="fill:#fff"></path><path d="M203.78,232.39v-31h6.47l8.23,18.35h.09V201.43H224v31h-5.66l-9.05-20h-.08v20Z" style="fill:#fff"></path><path d="M236.4,232.39v-31h5.92v31Z" style="fill:#fff"></path><path d="M252.4,201.43h5.83l5.44,22.12h.09l5.4-22.12H275l-7.89,31h-6.73Z" style="fill:#fff"></path><path d="M284.68,232.39v-31h16.21v5.23H290.6v7.12h7.84V219H290.6v8.15h10.72v5.23Z" style="fill:#fff"></path><path d="M326.44,232.39l-5.14-12.61h-2.83v12.61h-5.92v-31h8.58c7.11,0,10.5,3.43,10.5,9.26,0,3.86-1.37,6.65-4.67,7.89l5.83,13.81Zm-8-17.5h3c2.62,0,4.2-1.28,4.2-4.28s-1.58-4.29-4.2-4.29h-3Z" style="fill:#fff"></path><path d="M355.9,210.05c-1-2.92-2.28-4.16-4.33-4.16s-3.26,1.29-3.26,3.39c0,4.67,13.2,5,13.2,14.7,0,5.32-3.64,8.84-9.86,8.84-4.8,0-8.53-2.62-10.12-8.71l5.83-1.24c.69,3.73,2.83,5.06,4.59,5.06a3.48,3.48,0,0,0,3.65-3.69c0-5.83-13.21-5.92-13.21-14.58,0-5.31,3.17-8.66,9.3-8.66a9.2,9.2,0,0,1,9.52,7.5Z" style="fill:#fff"></path><path d="M373.43,232.39v-31h5.92v31Z" style="fill:#fff"></path><path d="M409.36,201.43v5.23h-6.9v25.73h-5.92V206.66h-6.9v-5.23Z" style="fill:#fff"></path><path d="M428.66,213.91l5-12.48H440l-8.45,18.44v12.52h-5.92V219.87l-8.45-18.44h6.31Z" style="fill:#fff"></path><path d="M461.62,232.8c-5.91,0-8.87-5-8.87-11.24s3-11.25,8.87-11.25,8.87,5,8.87,11.25S467.54,232.8,461.62,232.8Zm0-19.91c-3.58,0-5.87,3.08-5.87,8.67s2.29,8.66,5.87,8.66,5.87-3.08,5.87-8.66S465.2,212.89,461.62,212.89Z" style="fill:#fff"></path><path d="M480,232.39V213.31h-3.67v-2.58H480v-2.46c0-5.13,1.75-6.38,5.29-6.38.87,0,1.79.13,2.66.21v2.67c-.71-.08-1.5-.29-2.16-.29-2,0-2.79.66-2.79,3.08v3.17h4.7v2.58H483v19.08Z" style="fill:#fff"></path><path d="M34.14,273.49c-2.34-6.93-5.4-9.88-10.29-9.88s-7.75,3.06-7.75,8.05c0,11.11,31.39,11.92,31.39,35,0,12.63-8.66,21-23.44,21-11.41,0-20.28-6.22-24-20.69L13.86,304c1.63,8.86,6.73,12,10.91,12,4.89,0,8.66-3.26,8.66-8.76C33.43,293.37,2,293.16,2,272.58,2,259.94,9.58,252,24.15,252c12.54,0,20.18,7.44,22.63,17.84Z" style="fill:#fff"></path><path d="M57.48,276.65c0-18.14,9.58-24.66,23.24-24.66S104,258.51,104,276.65V303c0,18.14-9.58,24.66-23.24,24.66S57.48,321.09,57.48,303Zm14.07,28.13c0,8.16,3.56,10.4,9.17,10.4s9.17-2.24,9.17-10.4v-30c0-8.15-3.57-10.4-9.17-10.4s-9.17,2.25-9.17,10.4Z" style="fill:#fff"></path><path d="M129.23,253v51.47c0,7,3.06,10.7,9.89,10.7s10-3.67,10-10.7V253h14.06v51.57c0,16.2-9.58,23-24,23s-24-6.83-24-23V253Z" style="fill:#fff"></path><path d="M220.25,253v12.43H203.84v61.15H189.77V265.44h-16.4V253Z" style="fill:#fff"></path><path d="M230.44,326.59V253H244.5v29.35h19.88V253h14.06v73.58H264.38v-31.8H244.5v31.8Z" style="fill:#fff"></path><path d="M315.14,326.59V253h36.68v12.43H329.2v16.92h17.73v12.43H329.2v31.8Z" style="fill:#fff"></path><path d="M361.41,326.59V253h14.06v61.15h22.62v12.43Z" style="fill:#fff"></path><path d="M406.45,276.65c0-18.14,9.58-24.66,23.24-24.66s23.24,6.52,23.24,24.66V303c0,18.14-9.58,24.66-23.24,24.66s-23.24-6.52-23.24-24.66Zm14.07,28.13c0,8.16,3.56,10.4,9.17,10.4s9.17-2.24,9.17-10.4v-30c0-8.15-3.57-10.4-9.17-10.4s-9.17,2.25-9.17,10.4Z" style="fill:#fff"></path><path d="M498.38,326.59l-12.23-30h-6.72v30H465.36V253h20.38c16.92,0,25,8.15,25,22,0,9.18-3.26,15.8-11.11,18.76l13.87,32.81ZM479.43,285h7.23c6.22,0,10-3.06,10-10.19s-3.77-10.19-10-10.19h-7.23Z" style="fill:#fff"></path><path d="M523.86,326.59V253h14.07v73.58Z" style="fill:#fff"></path><path d="M552.4,253H572c16.1,0,25.07,6.93,25.68,25.48v22.62c-.61,18.55-9.58,25.48-25.68,25.48H552.4Zm14.07,61.15h4.89c7.74,0,12.23-3.67,12.23-14.68V280.12c0-10.4-3.47-14.68-12.23-14.68h-4.89Z" style="fill:#fff"></path><path d="M605.1,326.59,623.34,253h18l17.73,73.58H645.66l-3.57-15.49H622.62l-4,15.49Zm20.07-27.92h14l-6.82-29.76h-.21Z" style="fill:#fff"></path></svg>