<?xml version="1.0" encoding="UTF-8" standalone="no"?>
<!-- Created with Inkscape (http://www.inkscape.org/) -->

<svg
   width="49.588207mm"
   height="39.684853mm"
   viewBox="0 0 49.588207 39.684853"
   version="1.1"
   id="svg5"
   xml:space="preserve"
   xmlns="http://www.w3.org/2000/svg"
   xmlns:svg="http://www.w3.org/2000/svg"><defs
     id="defs2" /><g
     id="layer1"
     transform="translate(-0.52916667,-0.13818858)"><g
       id="g203"
       transform="matrix(0.26458333,0,0,0.26458333,0.52916667,0.13818858)"><path
         d="m 165,23.16 c 0,-3.25 3,-13.11 3,-13.11 0,0 -18.31,10.78 -18.31,23 0,8.55 5.41,13.64 5.41,15.77 0,2.55 -11.07,7.64 -44.19,7.64 l -24.17,40.07 -8.26,5.3 -10,18.89 H 49.71 L 61.11,102.2 58.38,96.41 85.8,55.29 c -42.86,0 -48.43,-5.15 -48.43,-6 C 37.37,46.86 56,38.36 56,23.94 56,17.25 49.38,9.21 49.38,9.21 46.22,37.2 3.93,30.52 3.93,62.29 c 0,13 15.83,18.58 31.45,19.69 l -5.32,8 c -2,3 -0.43,6.38 2.05,11.38 l -10.5,16.85 c 0,0 -4.84,3.48 -5.89,5.51 -2.19,4.29 2.34,10.7 9.54,22.5 h 51.19 c 17.21,-9.73 24.3,-13.73 24.3,-17.79 l -0.29,-4.24 9.84,-17.2 c 2.57,-1.17 8.9,-4.37 11.57,-8.71 l 9,-14.63 C 156.57,83.17 183.5,72.87 183.5,50.83 183.49,35.93 165,34 165,23.16 m -36,57.19 -9.93,16.16 c -2.71,4.42 -11.08,7.86 -11.08,7.86 l -10.88,19 0.36,4.9 c 0.15,2.65 -16.84,11.69 -22,14.69 H 27.13 c -1.76,-3 -10,-14.81 -8.5,-17.78 0.6,-1.15 3,-2.82 5.47,-4.8 l 11.76,-18.9 c -2.47,-5 -4.18,-8.07 -3.07,-9.73 L 41.4,78.91 c -9.69,0 -34.19,-2.33 -34.19,-16.62 0,-26.4 37.32,-25.12 43.34,-45.37 a 14.6,14.6 0 0 1 2.19,7 c 0,13.52 -18.68,19.73 -18.68,25.25 0,7.71 26,9.39 45.59,9.39 l -25,37.55 2.73,5.89 -13.55,22 H 70.42 L 81,104.13 89.19,98.88 112.7,59.76 c 32,0 45.62,-5.2 45.62,-10.93 0,-3.81 -5.41,-7.77 -5.41,-15.77 0,-8 9.45,-14.85 9.45,-14.85 -4.82,18.11 17.84,18.1 17.84,32.57 0,20.37 -27.2,29.57 -51.2,29.57"
         style="fill:#ffffff"
         id="path182" /><path
         d="m 168.87,23.16 c 0,-5.78 5.71,-22.86 5.71,-22.86 0,0 -28.89,16 -28.89,32.76 0,8.07 4.63,14.75 4.63,14.75 -8.48,3.93 -25.38,4.74 -41.7,4.74 L 83.85,93.72 75.5,99.09 66.08,116.8 h -9.34 l 8.83,-14.36 -2.69,-5.7 30.26,-45.37 c -34.29,0 -41.38,-1.09 -49.08,-3.06 0,0 15.9,-10.16 15.9,-24.37 C 60,14.49 48.05,0 48.05,0 L 43.63,14.87 C 38.85,31 0,30.8 0,62.29 0,76.08 13.18,82.88 28.51,85.18 l -1.71,2.56 c -2.88,4.3 -1.37,8.71 0.83,13.33 l -9,14.42 c 0,0 -4.93,3.44 -6.42,6.37 -3.07,6.06 0.92,12.41 10.8,28.13 h 54.65 c 21.44,-12.12 27,-15.26 27,-22.11 0,-0.06 -0.11,-1.51 -0.2,-2.83 L 113.09,110 c 3.42,-1.68 9.27,-5 12.12,-9.69 l 7.88,-12.82 c 26.9,-1.07 54.33,-12.63 54.33,-36.68 0,-16.33 -18.55,-20.41 -18.55,-27.62 m -38,60.43 -9,14.64 c -2.67,4.34 -9,7.54 -11.57,8.71 l -9.84,17.2 0.29,4.24 c 0,4.05 -7.09,8.07 -24.3,17.79 H 25.26 c -7.21,-11.8 -11.73,-18.21 -9.54,-22.5 1,-2 5.89,-5.51 5.89,-5.51 L 32.1,101.31 c -2.47,-5 -4.08,-8.35 -2,-11.38 l 5.32,-8 C 19.75,80.87 3.92,75.3 3.92,62.29 3.92,30.52 46.22,37.2 49.41,9.21 c 0,0 6.62,8 6.62,14.73 0,14.42 -18.66,22.92 -18.66,25.33 0,0.88 5.57,6 48.43,6 l -27.42,41.14 2.73,5.78 -11.4,18.53 h 18.73 l 10,-18.89 8.26,-5.3 24.1,-40.06 c 33.2,0 44.2,-5.09 44.2,-7.64 0,-2.13 -5.41,-7.22 -5.41,-15.76 0,-12.24 18.31,-23 18.31,-23 0,0 -3,9.86 -3,13.11 0,10.86 18.53,12.77 18.53,27.62 0,22 -26.93,32.34 -52.63,32.81"
         style="fill:#cfc493"
         id="path184" /><path
         d="m 162.36,18.21 c 0,0 -9.45,6.93 -9.45,14.85 0,7.92 5.41,12 5.41,15.77 0,5.73 -13.65,10.93 -45.62,10.93 L 89.17,98.88 81,104.14 70.42,124 H 43.83 l 13.55,-22 -2.77,-5.86 25,-37.55 c -19.63,0 -45.59,-1.68 -45.59,-9.39 0,-5.52 18.68,-11.73 18.68,-25.25 a 14.6,14.6 0 0 0 -2.19,-7 c -6,20.25 -43.34,19 -43.34,45.37 0,14.29 24.5,16.62 34.19,16.62 l -8.57,12.82 c -1.11,1.66 0.6,4.69 3.07,9.73 l -11.76,18.9 c -2.49,2 -4.87,3.65 -5.47,4.8 -1.53,3 6.74,14.77 8.5,17.78 h 48.31 c 5.18,-3 22.17,-12 22,-14.69 l -0.36,-4.9 10.88,-19 c 0,0 8.37,-3.44 11.08,-7.86 L 129,80.35 c 24,0 51.21,-9.2 51.21,-29.57 0,-14.47 -22.66,-14.46 -17.84,-32.57"
         style="fill:#006747"
         id="path186" /><path
         d="m 97.55,142.25 a 3.36,3.36 0 0 0 -2.47,1 3.4,3.4 0 0 0 -1,2.48 3.46,3.46 0 0 0 1,2.5 3.5,3.5 0 0 0 5,0 3.51,3.51 0 0 0 -2.48,-6 m 2.13,5.66 a 3,3 0 0 1 -4.27,0 3.08,3.08 0 0 1 0,-4.3 3,3 0 0 1 4.26,0 3.07,3.07 0 0 1 0,4.3"
         style="fill:#cfc493"
         id="path188" /><path
         d="m 99.13,144.92 a 1,1 0 0 0 -0.59,-1 2.84,2.84 0 0 0 -1.06,-0.14 h -1.34 v 3.86 h 0.67 v -1.52 h 0.53 a 1.69,1.69 0 0 1 0.76,0.12 1,1 0 0 1 0.36,0.89 v 0.31 0.12 c 0,0 0,0 0,0 0,0 0,0 0,0 h 0.63 v 0 a 0.56,0.56 0 0 1 0,-0.2 c 0,-0.1 0,-0.2 0,-0.29 v -0.28 a 1.07,1.07 0 0 0 -0.2,-0.6 1,1 0 0 0 -0.65,-0.38 1.61,1.61 0 0 0 0.55,-0.18 0.86,0.86 0 0 0 0.37,-0.77 m -1,0.67 a 2.15,2.15 0 0 1 -0.65,0.08 h -0.62 v -1.39 h 0.58 a 1.88,1.88 0 0 1 0.83,0.14 0.69,0.69 0 0 1 -0.14,1.17"
         style="fill:#cfc493"
         id="path190" /></g></g>
         </svg>
