<?xml version="1.0" standalone="no"?>
<!DOCTYPE svg PUBLIC "-//W3C//DTD SVG 20010904//EN"
 "http://www.w3.org/TR/2001/REC-SVG-20010904/DTD/svg10.dtd">
<svg version="1.0" xmlns="http://www.w3.org/2000/svg"
 width="512.000000pt" height="512.000000pt" viewBox="0 0 512.000000 512.000000"
 preserveAspectRatio="xMidYMid meet">
<metadata>
Created by potrace 1.16, written by Peter Selinger 2001-2019
</metadata>
<g transform="translate(0.000000,512.000000) scale(0.100000,-0.100000)"
fill="#064e3b" stroke="none">
<path d="M3216 4891 c150 -63 273 -142 409 -260 61 -53 204 -210 205 -224 0
-4 -30 -38 -67 -75 -38 -37 -83 -88 -102 -112 -18 -25 13 3 70 63 57 59 107
107 110 107 12 0 90 -128 109 -177 10 -26 21 -71 25 -98 4 -28 9 -58 12 -67 4
-16 -5 -18 -89 -18 -66 0 -89 -3 -78 -10 9 -7 45 -8 93 -4 67 5 77 4 77 -10 0
-12 -11 -16 -52 -17 -29 -1 -111 -5 -183 -9 l-130 -7 183 1 184 1 -4 -97 c-1
-53 0 -94 5 -91 4 2 7 46 7 98 0 81 2 94 18 98 16 4 16 5 0 6 -10 0 -18 8 -18
16 0 10 16 15 63 18 l62 3 -61 2 -60 2 -12 78 c-13 81 -50 172 -102 247 l-31
46 21 17 c19 15 20 21 11 62 -24 104 -2 191 66 256 24 24 40 44 34 44 -6 0
-29 -18 -50 -41 -56 -57 -75 -121 -68 -225 9 -120 -3 -123 -87 -26 -163 186
-381 346 -570 417 -102 38 -102 29 0 -14z"/>
<path d="M4202 4778 c-31 -31 0 -69 35 -43 14 11 16 18 7 31 -14 23 -27 27
-42 12z m22 -29 c-3 -5 -10 -7 -15 -3 -5 3 -7 10 -3 15 3 5 10 7 15 3 5 -3 7
-10 3 -15z"/>
<path d="M4025 4712 c-44 -28 -62 -52 -74 -99 -13 -48 -7 -83 21 -131 22 -36
83 -72 122 -72 56 0 122 44 152 102 29 56 11 140 -40 188 -37 33 -137 40 -181
12z m127 -7 c10 -4 -3 -25 -46 -69 -34 -35 -73 -80 -86 -100 -14 -20 -28 -36
-32 -36 -4 0 -11 16 -17 35 -14 51 2 105 43 143 29 26 44 32 80 32 24 0 51 -2
58 -5z m74 -66 c63 -123 -87 -260 -202 -184 -26 17 -28 23 -15 43 6 10 16 8
46 -9 35 -21 40 -22 78 -8 22 8 43 20 45 28 4 11 -1 10 -19 -2 -29 -21 -87
-21 -113 -2 -17 13 -18 16 -3 38 8 13 43 51 77 86 67 68 75 69 106 10z"/>
<path d="M4307 4670 c11 -23 14 -49 10 -91 -6 -66 8 -71 18 -6 7 46 -12 118
-32 124 -8 3 -7 -6 4 -27z"/>
<path d="M2140 4620 c-133 -28 -281 -95 -393 -177 -72 -53 -48 -52 32 1 91 61
217 120 311 145 290 79 616 25 870 -144 102 -68 222 -200 267 -293 45 -93 56
-177 27 -199 -14 -11 -185 -13 -931 -13 -502 0 -913 2 -913 4 0 2 9 26 20 51
31 73 125 212 187 277 31 32 54 61 51 63 -8 8 -112 -108 -158 -175 -42 -62
-110 -191 -110 -209 0 -7 -57 -12 -172 -13 l-173 -2 170 -6 c94 -3 590 -3
1103 0 657 4 932 2 932 -6 0 -52 -68 -202 -120 -263 l-28 -33 -63 37 c-143 84
-311 113 -469 81 -125 -26 -202 -66 -288 -151 -51 -52 -82 -75 -106 -79 -64
-12 -106 -61 -125 -147 -14 -63 3 -129 50 -191 50 -67 50 -93 -1 -154 -22 -27
-40 -52 -40 -56 0 -4 -43 -28 -95 -54 -53 -25 -98 -51 -101 -56 -3 -5 -20 24
-38 64 -38 86 -68 135 -132 213 -40 49 -44 59 -30 67 23 13 63 87 70 131 l7
37 55 0 c55 0 124 23 124 41 0 5 -10 3 -22 -5 -13 -7 -38 -16 -56 -20 l-33 -6
27 50 c38 70 88 126 140 156 50 30 53 44 4 19 -51 -26 -116 -98 -150 -164 -28
-56 -33 -61 -63 -61 -30 0 -34 3 -46 46 -18 61 -82 128 -136 143 -119 32 -236
-13 -286 -111 -11 -21 -26 -38 -35 -38 -27 0 -139 41 -150 55 -6 8 -14 12 -18
8 -3 -4 -20 3 -36 16 -17 12 -30 17 -30 11 0 -18 92 -68 167 -90 l73 -22 0
-47 c0 -55 39 -141 77 -171 15 -11 24 -21 22 -23 -2 -1 -17 -9 -33 -17 -46
-23 -107 -90 -150 -163 -37 -65 -40 -67 -79 -67 l-40 0 7 83 c3 45 9 153 13
239 l6 157 36 4 c20 2 -18 3 -84 3 -75 0 -91 -1 -42 -3 l77 -4 0 -62 c0 -34
-7 -160 -16 -280 -13 -175 -14 -238 -6 -316 14 -117 51 -250 97 -349 63 -134
194 -315 249 -344 11 -6 -2 14 -31 46 -184 201 -303 489 -303 732 l0 84 36 0
36 0 -22 -36 c-12 -19 -20 -37 -17 -40 3 -3 16 13 29 35 l23 41 104 0 103 0
146 -122 146 -122 -45 -14 c-28 -8 -81 -12 -149 -10 -94 3 -112 7 -175 36 -38
18 -85 45 -104 59 -19 15 -32 20 -29 12 6 -19 100 -82 156 -103 73 -28 232
-33 308 -8 l60 19 41 -28 41 -28 -42 -133 c-53 -173 -56 -250 -11 -298 33 -35
135 -90 203 -110 39 -12 42 -16 42 -48 0 -31 -31 -403 -45 -540 -5 -46 -2 -56
18 -76 13 -13 42 -27 64 -31 39 -6 41 -8 47 -48 4 -33 10 -793 7 -869 -1 -16
-14 -18 -137 -18 -104 0 -135 -3 -132 -12 6 -16 1251 -14 1256 2 2 6 -49 10
-134 10 -133 0 -137 1 -160 25 -19 21 -32 25 -79 25 -60 0 -112 17 -134 43
-12 15 -11 17 7 17 19 0 19 2 5 43 -10 27 -15 78 -15 147 1 122 21 595 28 627
3 16 14 23 45 28 22 4 43 13 46 21 3 7 0 248 -6 535 -6 287 -10 524 -7 526 2
2 33 -22 67 -55 84 -77 107 -92 144 -92 38 0 50 8 217 152 l137 118 -6 53 -5
52 47 24 c49 26 115 93 140 144 22 45 19 72 -12 92 -26 17 -30 17 -76 1 -27
-10 -51 -15 -53 -13 -3 3 0 45 7 93 14 106 7 258 -16 334 -17 54 -83 185 -91
178 -2 -3 12 -33 30 -69 66 -125 81 -233 66 -471 -4 -68 -7 -78 -27 -82 -11
-3 -28 -8 -36 -12 -12 -4 -13 1 -4 36 13 47 3 73 -31 78 -16 3 -23 -4 -30 -32
-6 -19 -23 -52 -40 -73 -16 -21 -33 -52 -38 -69 -6 -22 -34 -51 -92 -98 -45
-36 -87 -66 -91 -66 -5 0 -58 51 -118 114 l-108 113 -72 18 c-68 16 -153 63
-153 84 0 5 14 11 32 15 73 14 93 65 63 162 -9 31 -11 52 -5 58 19 19 12 67
-10 73 -15 4 -20 14 -20 40 0 19 -5 43 -10 53 -7 13 -7 21 0 25 19 12 10 61
-16 86 -27 25 -76 31 -144 17 l-35 -8 65 63 c109 104 224 147 395 147 116 0
190 -16 290 -64 122 -59 122 -47 4 -170 -57 -60 -152 -149 -211 -198 -59 -50
-108 -92 -108 -95 0 -20 220 168 327 281 56 58 106 106 111 106 6 0 35 -28 66
-62 93 -105 146 -232 146 -355 l0 -61 63 14 c58 13 115 31 161 50 19 7 19 2
13 -164 -11 -256 -47 -419 -130 -582 l-43 -85 -64 -5 c-36 -3 -71 -9 -77 -13
-8 -5 -13 -31 -13 -67 0 -53 -3 -61 -27 -78 -46 -32 -166 -89 -213 -102 -72
-18 -82 -22 -77 -26 12 -12 140 32 225 76 l92 48 0 -198 0 -199 -82 -3 -83 -3
-3 -202 c-2 -198 -3 -203 -23 -203 -18 0 -21 -5 -17 -35 4 -34 3 -35 -33 -35
-47 0 -67 -8 -79 -30 -15 -27 13 -50 61 -50 32 0 39 -3 39 -20 0 -14 7 -20 24
-20 21 0 24 -6 30 -56 3 -30 6 -256 6 -501 -1 -260 3 -450 8 -455 6 -6 18 -1
31 14 20 21 38 25 179 39 89 9 162 12 168 7 7 -5 31 -4 55 2 46 12 228 39 267
40 23 0 23 -2 18 -58 -8 -79 7 -40 33 85 22 103 61 410 82 651 9 96 17 142 25
142 6 0 25 -7 40 -15 16 -8 39 -15 52 -15 12 0 24 -6 27 -12 2 -7 6 -198 10
-425 l6 -412 -26 -17 c-15 -10 -49 -23 -77 -30 -28 -8 -57 -23 -65 -34 -14
-19 -24 -20 -379 -20 -288 0 -365 -3 -362 -12 4 -10 185 -14 854 -16 789 -2
850 -1 862 15 9 13 12 130 12 505 l0 488 25 0 c22 0 25 5 25 33 0 39 9 53 34
58 10 2 24 11 29 21 19 29 -9 48 -68 48 l-52 0 -17 115 c-9 63 -19 146 -22
183 -6 89 -12 112 -29 112 -13 0 -15 24 -15 145 0 178 3 175 -142 170 -87 -3
-99 -1 -115 17 -10 11 -38 34 -63 51 -25 17 -57 44 -71 59 l-27 28 29 71 c31
75 37 141 17 184 -6 14 -17 25 -24 25 -7 0 -17 6 -21 13 -29 48 -208 100 -228
66 -5 -6 -12 -4 -20 7 -18 25 -45 11 -45 -25 0 -20 9 -37 28 -53 23 -19 27
-29 24 -65 -2 -31 -8 -43 -19 -43 -11 0 -14 -6 -9 -22 4 -13 9 -52 12 -87 5
-68 16 -91 44 -91 23 0 29 -8 23 -30 -3 -11 -33 -30 -78 -50 -47 -20 -77 -40
-86 -57 -12 -22 -14 -23 -20 -6 -4 10 -8 89 -8 176 -1 195 -2 197 -116 197
-41 0 -75 2 -75 4 0 2 17 33 39 68 64 106 110 203 133 285 19 65 23 102 22
228 0 130 -3 163 -26 250 -45 168 -123 375 -149 390 -6 4 -10 4 -8 -1 73 -170
126 -330 154 -463 19 -91 19 -265 0 -356 -14 -70 -102 -260 -164 -358 l-31
-47 -195 0 -194 0 31 53 c98 166 148 391 148 668 l0 126 45 32 c48 34 125 128
125 152 0 7 -16 -9 -35 -38 -32 -47 -120 -131 -129 -122 -3 2 -9 72 -15 155
-18 241 -66 371 -211 573 -41 58 -84 129 -94 156 -77 207 -287 392 -547 480
-169 58 -407 72 -579 35z m1320 -865 c73 -145 88 -211 97 -406 l6 -146 -43
-17 c-35 -14 -152 -45 -170 -46 -3 0 -6 27 -8 61 -6 132 -87 300 -186 387
l-36 31 30 35 c51 58 97 158 121 265 l22 101 53 -73 c30 -39 81 -126 114 -192z
m-1874 -200 c56 -16 105 -61 128 -117 9 -21 16 -42 16 -48 0 -21 -346 -6 -412
19 -17 6 -16 10 11 52 40 64 110 104 187 108 11 1 43 -6 70 -14z m818 -56 c28
-22 30 -27 17 -48 -7 -12 -14 -10 -36 8 -33 25 -122 29 -170 6 -29 -13 -29
-14 -8 -20 21 -7 21 -9 8 -28 -9 -14 -15 -45 -15 -84 l0 -63 -40 0 c-26 0 -42
-5 -49 -17 -16 -30 -37 60 -23 101 7 18 12 40 12 49 0 39 52 76 135 96 106 25
137 25 169 0z m-1 -87 c18 -18 27 -36 27 -58 0 -37 -12 -44 -80 -44 -27 0 -52
-4 -55 -10 -3 -5 -19 -10 -34 -10 -24 0 -30 5 -35 31 -10 51 -7 69 14 99 19
27 23 28 78 23 42 -4 64 -12 85 -31z m-998 -35 l70 -12 80 -83 c99 -104 100
-102 -70 -107 -104 -4 -122 4 -159 67 -25 45 -42 120 -31 138 8 12 20 12 110
-3z m322 -50 c-6 -41 -42 -103 -66 -112 -9 -4 -39 19 -79 57 -97 97 -99 93 35
93 l115 1 -5 -39z m740 -47 c4 -13 3 -13 -6 0 -10 13 -12 13 -20 0 -6 -9 -6
-19 1 -27 7 -8 7 -13 0 -13 -16 0 -35 29 -28 46 7 19 48 15 53 -6z m-106 -17
c0 -25 1 -25 8 -8 5 11 7 23 4 28 -2 4 1 7 7 7 6 0 10 -12 8 -27 -3 -24 -8
-28 -33 -28 -25 0 -30 4 -33 28 -3 22 1 27 17 27 16 0 21 -7 22 -27z m-59 -23
c11 -19 25 -30 39 -30 21 0 21 0 -2 -19 l-24 -20 40 5 c41 6 115 -18 115 -35
0 -5 3 -16 6 -24 9 -24 -31 -57 -68 -57 -42 0 -107 45 -114 79 -11 50 -18 56
-22 18 -3 -38 31 -117 52 -117 5 0 7 -3 4 -6 -8 -7 -84 32 -95 48 -4 7 -10 48
-13 91 l-5 78 30 8 c17 5 32 10 35 10 3 0 13 -13 22 -29z m-147 -20 c19 -36
39 -40 33 -6 -4 17 -1 23 9 19 7 -3 13 -20 13 -39 0 -35 -10 -41 -45 -28 -19
8 -48 61 -40 74 9 15 13 12 30 -20z m260 -1 c-3 -5 1 -6 10 -2 16 5 34 -11 35
-30 0 -8 -55 0 -72 10 -4 2 -2 12 4 23 7 10 16 16 20 14 5 -3 6 -10 3 -15z
m-710 -106 c30 -38 76 -110 101 -160 l46 -93 -18 -61 c-19 -64 -32 -77 -120
-122 -31 -16 -31 -16 -95 35 -35 29 -97 81 -138 117 l-75 66 180 5 179 6 -191
2 c-189 2 -191 2 -214 27 -27 29 -42 25 -15 -5 18 -20 18 -20 -78 -20 l-97 0
32 53 c51 85 85 123 138 157 45 29 53 31 81 21 18 -6 50 -10 73 -10 l41 1 -48
8 c-76 13 -68 20 24 21 46 0 93 4 104 9 11 5 23 9 27 9 3 1 32 -29 63 -66z
m503 -9 c5 -39 25 -60 78 -80 24 -9 44 -20 44 -24 0 -21 -33 -15 -86 14 -58
32 -59 34 -62 80 -2 36 0 47 10 44 7 -3 15 -18 16 -34z m37 -110 c75 -45 76
-46 97 -28 20 19 20 19 17 -1 -3 -11 -8 -18 -13 -15 -5 3 -12 -5 -17 -17 -5
-13 -12 -23 -17 -23 -19 0 -152 101 -152 115 0 8 2 15 5 15 2 0 38 -21 80 -46z
m-115 -16 c0 -7 14 -42 31 -78 17 -36 46 -105 64 -155 18 -49 53 -138 79 -196
53 -122 59 -148 17 -72 -33 60 -68 106 -159 212 l-64 73 36 37 c47 48 46 60
-4 54 l-40 -6 0 40 c0 45 17 103 31 103 5 0 9 -6 9 -12z m142 -110 c-9 -15
-20 -28 -24 -28 -10 0 -52 59 -78 109 l-21 43 70 -48 70 -48 -17 -28z m862 55
c-9 -26 -23 -55 -31 -64 -17 -20 -16 -34 3 -65 11 -16 15 -36 11 -59 -5 -28
-2 -35 14 -40 16 -5 18 -10 8 -21 -6 -8 -17 -14 -23 -14 -15 0 -49 35 -65 67
-10 19 -9 22 4 17 13 -5 14 -2 5 21 -19 51 -12 91 25 135 19 23 35 50 35 59 0
23 11 34 23 22 6 -6 2 -28 -9 -58z m-651 -62 c35 -49 37 -56 37 -129 0 -42 -3
-135 -7 -207 l-7 -130 -13 124 c-16 160 -50 344 -74 401 l-19 45 23 -26 c12
-15 39 -50 60 -78z m-78 -51 c9 -30 19 -107 22 -171 5 -102 3 -125 -16 -189
-23 -74 -39 -95 -19 -24 15 54 4 230 -21 329 -17 70 -18 81 -4 88 12 8 12 11
-6 24 -26 17 -26 30 -3 56 17 19 17 18 24 -19 4 -22 14 -64 23 -94z m931 111
c-4 -5 -32 -21 -62 -35 -46 -21 -55 -29 -48 -43 4 -10 9 -35 12 -55 3 -33 1
-38 -27 -52 -57 -30 -68 -23 -74 46 -3 36 -1 68 5 75 5 6 33 20 61 29 29 10
70 25 92 35 40 18 52 18 41 0z m-1269 -43 c-2 -41 -1 -43 31 -48 l34 -5 -26
-24 c-14 -14 -26 -32 -26 -42 0 -9 27 -75 61 -145 33 -71 75 -169 92 -219 l31
-90 2 -475 c2 -445 1 -456 -6 -186 -6 198 -12 292 -20 300 -9 8 -11 -57 -8
-279 l3 -290 -65 3 c-63 3 -180 18 -185 24 -1 2 1 41 5 88 18 204 22 312 11
305 -6 -3 -9 -10 -6 -15 3 -5 1 -11 -5 -15 -12 -7 -12 14 -4 107 l7 67 53 7
c72 8 70 27 -2 22 -51 -3 -55 -2 -50 17 3 11 6 26 6 33 0 7 13 12 29 12 30 0
41 14 41 55 0 16 11 30 34 44 29 18 66 72 66 97 0 4 -7 16 -17 26 -17 20 -54
24 -82 9 -13 -7 -25 -3 -48 15 -29 22 -32 30 -38 107 -6 68 -3 91 12 132 11
28 25 49 32 47 9 -2 11 12 6 55 -7 65 -44 150 -76 179 -14 12 -10 2 11 -28 47
-67 50 -122 12 -218 -16 -41 -33 -100 -37 -130 l-8 -55 -13 30 c-9 19 -12 51
-9 90 l5 60 -15 -48 c-12 -35 -13 -57 -6 -82 9 -34 9 -34 -32 -49 l-42 -15 43
6 c34 5 42 3 42 -11 0 -11 -9 -16 -32 -16 -52 0 -66 -16 -21 -23 63 -10 77
-14 116 -37 l37 -22 -25 -25 c-29 -30 -42 -86 -28 -124 l10 -27 -36 10 c-68
18 -178 77 -197 105 -12 18 -19 44 -18 73 1 53 149 536 173 564 14 16 155 94
173 96 4 0 6 -19 5 -42z m479 14 c58 -16 68 -24 170 -131 l108 -113 -28 -21
c-16 -11 -35 -35 -42 -53 -15 -37 -19 -110 -6 -118 5 -3 8 3 8 12 0 80 2 83
92 169 48 46 106 96 128 113 l42 30 6 -31 c10 -54 93 -158 115 -145 5 4 12 2
15 -3 3 -5 -18 -27 -47 -49 -28 -22 -90 -74 -136 -116 -125 -114 -141 -114
-257 6 l-81 83 -7 85 c-17 196 -23 145 -19 -169 2 -184 0 -337 -4 -340 -5 -3
-5 -82 -2 -176 4 -93 8 -246 10 -340 l3 -170 -24 0 -25 0 -6 332 c-4 182 -10
336 -13 342 -4 5 -6 173 -6 372 l0 361 -30 36 c-25 31 -37 53 -27 52 1 -1 30
-8 63 -18z m806 1 c-6 -2 -10 -9 -6 -14 3 -5 0 -9 -5 -9 -6 0 -11 -7 -11 -15
0 -17 -30 -35 -57 -35 -12 1 -7 7 16 19 19 10 29 21 24 24 -6 4 -16 0 -23 -8
-13 -16 -30 -20 -30 -7 0 9 79 51 95 51 6 -1 4 -3 -3 -6z m-1090 -65 c29 29
38 13 38 -72 0 -47 -3 -87 -8 -90 -4 -2 -21 36 -38 84 -18 54 -25 85 -17 78
10 -8 17 -8 25 0z m1033 -38 c-10 -11 -21 -17 -24 -14 -3 3 3 12 13 20 28 20
32 17 11 -6z m-1506 -134 c-13 -51 -22 -55 -59 -25 -20 17 -22 22 -10 29 8 5
29 18 45 28 17 11 31 18 33 17 2 -1 -2 -23 -9 -49z m423 -65 c31 -44 58 -131
57 -181 0 -17 -7 -8 -20 30 -11 31 -41 101 -68 155 -49 101 -42 100 31 -4z
m941 59 c-5 -19 -23 -29 -23 -12 0 7 20 32 26 32 1 0 0 -9 -3 -20z m-669 -290
c8 -91 19 -208 22 -260 l6 -95 -33 -19 -32 -19 -24 27 c-27 31 -29 53 -7 81
13 16 14 38 8 125 -3 58 -11 113 -16 123 -6 12 -1 42 17 98 14 44 25 92 25
107 1 20 3 23 9 12 5 -8 16 -89 25 -180z m-157 -125 c4 -86 10 -133 18 -140
27 -21 43 -60 35 -81 -7 -19 -66 -53 -74 -43 -2 2 -6 112 -8 244 -5 223 -5
237 9 195 9 -26 18 -100 20 -175z m1888 187 c-3 -3 -11 0 -18 7 -9 10 -8 11 6
5 10 -3 15 -9 12 -12z m142 2 c-3 -3 -12 -4 -19 -1 -8 3 -5 6 6 6 11 1 17 -2
13 -5z m-54 -11 c-13 -2 -35 -2 -50 0 -16 2 -5 4 22 4 28 0 40 -2 28 -4z
m-113 -54 c0 -31 -4 -48 -10 -44 -11 7 -13 54 -4 79 10 27 14 18 14 -35z
m-1790 -70 c0 -11 -4 -17 -10 -14 -5 3 -10 13 -10 21 0 8 5 14 10 14 6 0 10
-9 10 -21z m1556 -206 c0 -111 -3 -207 -7 -214 -5 -8 -21 -3 -53 20 -55 36
-64 37 -114 13 -20 -10 -45 -17 -54 -14 -14 2 -18 -3 -18 -22 l0 -26 -177 -2
-178 -3 179 -2 179 -3 36 -29 c20 -16 50 -48 68 -73 27 -38 29 -46 18 -62 -8
-10 -17 -35 -20 -57 l-7 -39 -204 0 c-112 0 -207 -1 -211 -2 -5 -2 -9 37 -11
87 -3 97 -7 105 -59 105 l-33 0 -2 228 c-2 267 -1 284 15 294 7 4 156 7 332 5
l320 -2 1 -202z m249 197 c-3 -5 -2 -17 3 -26 8 -14 11 -14 26 7 l16 23 0 -26
c0 -15 -8 -33 -18 -40 -10 -7 -22 -26 -26 -41 -5 -20 -12 -27 -24 -25 -14 3
-18 16 -20 71 -3 66 -3 67 23 67 15 0 24 -4 20 -10z m-2108 -55 c-28 -25 -64
-35 -51 -14 6 10 61 38 74 38 3 0 -8 -11 -23 -24z m53 10 c0 -22 -37 -69 -75
-95 -41 -28 -45 -29 -45 -11 0 12 19 33 50 55 28 20 50 40 50 46 0 5 5 10 10
10 6 0 10 -2 10 -5z m257 -82 c-2 -16 -4 -3 -4 27 0 30 2 43 4 28 2 -16 2 -40
0 -55z m-387 38 c-15 -30 -12 -88 6 -106 9 -9 14 -18 11 -21 -3 -3 -15 4 -26
15 -26 26 -28 87 -4 113 21 23 26 23 13 -1z m2255 -3 c7 -15 25 -26 55 -34
l45 -12 -43 -1 c-23 -1 -58 -7 -77 -15 l-33 -14 5 36 c2 20 6 43 9 50 6 19 28
14 39 -10z m110 -88 c4 -6 -22 -10 -72 -9 -54 1 -70 3 -53 9 36 12 118 12 125
0z m86 -68 c47 -31 72 -56 82 -84 5 -15 0 -18 -28 -18 -31 0 -35 3 -35 26 0
17 -14 40 -39 65 -46 46 -41 49 20 11z m-277 -8 c3 -8 2 -12 -4 -9 -6 3 -10
10 -10 16 0 14 7 11 14 -7z m580 -70 c14 -5 16 -28 16 -154 0 -136 -2 -148
-19 -153 -17 -4 -19 -21 -26 -196 l-7 -191 -69 0 c-65 0 -69 1 -69 23 0 12 16
73 37 135 l37 113 -34 142 c-18 78 -37 165 -41 192 -4 28 -11 60 -15 73 -6 22
-5 22 84 22 50 0 97 -3 106 -6z m-678 -16 c4 -6 3 -8 -4 -4 -6 3 -25 -18 -44
-51 -164 -277 -193 -323 -196 -314 -8 24 9 59 63 130 31 41 77 114 103 162 45
85 63 102 78 77z m34 -28 c6 -11 8 -20 6 -20 -3 0 -10 9 -16 20 -6 11 -8 20
-6 20 3 0 10 -9 16 -20z m380 -10 c-36 -4 -104 -8 -152 -9 l-88 -1 0 -257 c0
-142 -3 -275 -6 -295 l-7 -38 107 0 c125 0 112 -22 121 200 3 85 8 206 12 268
l6 112 31 0 32 0 -8 -107 c-7 -94 -37 -345 -54 -455 l-6 -38 -116 0 c-65 0
-121 4 -127 8 -6 4 -9 117 -7 315 l4 307 161 -2 c127 -1 148 -3 97 -8z m-643
-22 c34 -39 34 -45 -2 -66 -33 -20 -34 -20 -40 -2 -3 11 -17 28 -30 39 l-25
19 23 15 c31 22 50 21 74 -5z m-83 -58 c50 -56 45 -59 -14 -10 -54 45 -57 50
-36 50 7 0 30 -18 50 -40z m-544 -60 c0 -11 -70 -11 -115 0 -23 6 -12 8 43 9
42 1 72 -3 72 -9z m30 -210 l0 -160 -65 0 -65 0 0 153 c0 85 3 157 7 160 3 4
33 7 65 7 l58 0 0 -160z m-1293 128 c-3 -8 -6 -5 -6 6 -1 11 2 17 5 13 3 -3 4
-12 1 -19z m1333 -138 c0 -93 -4 -150 -10 -150 -6 0 -10 57 -10 150 0 93 4
150 10 150 6 0 10 -57 10 -150z m1465 -278 c-10 -11 -11 6 -5 183 l5 180 3
-179 c1 -98 0 -181 -3 -184z m44 116 c1 -73 -3 -118 -9 -118 -6 0 -9 66 -8
183 1 202 15 151 17 -65z m-729 98 c0 -18 -5 -37 -12 -44 -9 -9 -3 -12 28 -13
l39 -2 -35 -6 c-35 -6 -35 -7 -47 -76 -6 -38 -15 -107 -19 -152 -6 -78 -8 -83
-29 -83 -27 0 -27 -11 7 235 24 176 32 203 53 185 8 -7 15 -27 15 -44z m-482
-16 c2 -30 1 -70 -3 -87 l-6 -33 -77 0 c-42 0 -84 -5 -92 -10 -10 -6 -20 -4
-32 7 -15 13 -18 32 -18 100 l0 84 113 -3 112 -3 3 -55z m222 51 c0 -5 12 -23
26 -40 27 -33 68 -40 116 -22 23 8 23 8 18 -48 l-5 -56 -147 -2 -148 -2 0 90
0 89 70 0 c39 0 70 -4 70 -9z m-1873 -83 c-3 -8 -6 -5 -6 6 -1 11 2 17 5 13 3
-3 4 -12 1 -19z m2897 -154 c3 -8 -1 -14 -9 -14 -12 0 -15 18 -14 98 l2 97 8
-84 c4 -46 10 -90 13 -97z m-1529 77 c3 -5 2 -12 -3 -15 -13 -8 -282 6 -282
15 0 12 277 11 285 0z m-1014 -233 c5 -106 17 -292 28 -413 10 -121 17 -235
14 -253 -7 -41 -31 -42 -71 -2 -17 17 -39 30 -50 30 -11 0 -27 11 -36 25 -14
22 -15 25 -1 25 8 0 15 3 15 8 0 38 65 674 76 745 3 21 8 36 11 33 3 -3 10
-92 14 -198z m896 195 c-20 -2 -52 -2 -70 0 -17 2 0 4 38 4 39 0 53 -2 32 -4z
m473 -3 c-35 -11 -131 -11 -105 0 11 5 45 8 75 8 42 0 49 -2 30 -8z m-1524
-305 c-15 -215 -15 -216 -10 -60 5 197 18 386 22 325 1 -25 -4 -144 -12 -265z
m1812 298 c-10 -2 -26 -2 -35 0 -10 3 -2 5 17 5 19 0 27 -2 18 -5z m12 -39 c0
-12 -79 -14 -514 -14 -283 0 -517 4 -520 9 -3 4 -3 11 1 15 4 3 237 6 520 5
434 -1 513 -3 513 -15z m-7 -49 c-8 -23 -893 -22 -893 0 0 13 56 15 450 15
390 -1 448 -3 443 -15z m1017 6 c0 -11 -151 -21 -317 -21 -112 0 -133 2 -133
15 0 13 32 15 225 15 124 0 225 -4 225 -9z m-1163 -50 c-33 -12 -23 -26 23
-32 25 -3 -133 -7 -351 -7 -417 -2 -409 -3 -409 39 0 5 154 9 378 8 207 0 369
-4 359 -8z m140 -33 c-3 -7 -5 -2 -5 12 0 14 2 19 5 13 2 -7 2 -19 0 -25z
m-732 -50 c-3 -7 -23 -141 -45 -298 -39 -275 -61 -406 -75 -442 -5 -13 -2 -18
8 -18 9 0 18 8 21 18 3 9 28 175 56 367 28 193 53 358 56 368 5 15 21 17 145
17 l140 0 -5 -32 c-3 -18 -10 -94 -16 -168 -6 -74 -20 -213 -31 -307 -10 -95
-19 -185 -18 -200 2 -105 46 206 69 497 15 187 19 210 36 210 17 0 18 -35 4
-165 -5 -49 -19 -218 -30 -375 -12 -157 -22 -286 -23 -287 -1 -1 -78 -9 -172
-18 -198 -18 -241 -26 -238 -43 2 -7 -2 -12 -7 -12 -7 0 -10 157 -10 450 l0
450 70 0 c51 0 68 -3 65 -12z m679 -10 c-2 -13 -8 -75 -14 -138 -18 -187 -60
-531 -71 -586 l-10 -52 -102 -11 c-56 -7 -117 -14 -134 -17 -27 -4 -33 -2 -33
13 0 16 41 547 56 736 l7 77 152 0 c152 0 152 0 149 -22z m739 5 c11 -38 197
-937 197 -950 0 -8 -431 -6 -439 2 -2 3 1 64 8 137 6 73 18 252 26 398 8 146
18 302 21 348 l7 82 88 0 c75 0 88 -3 92 -17z m217 -400 c0 -230 -4 -423 -8
-430 -4 -7 -24 64 -44 160 -99 457 -138 648 -138 667 0 19 6 20 95 20 l95 0 0
-417z m-773 285 c-2 -13 -4 -3 -4 22 0 25 2 35 4 23 2 -13 2 -33 0 -45z
m-1620 -374 c-3 -3 -12 -4 -19 -1 -8 3 -5 6 6 6 11 1 17 -2 13 -5z m1792 -287
c0 -49 -4 -98 -10 -109 -10 -18 -9 -20 5 -15 27 11 18 0 -19 -22 l-35 -20 0
31 c0 17 4 47 10 67 5 20 15 97 22 171 l13 135 6 -75 c4 -41 7 -115 8 -163z"/>
<path d="M2335 3140 c-23 -25 -12 -39 13 -17 23 21 31 21 54 0 21 -19 42 -6
32 20 -9 25 -76 23 -99 -3z"/>
<path d="M1460 3100 c8 -5 31 -10 50 -10 26 0 31 3 20 10 -8 5 -31 10 -50 10
-26 0 -31 -3 -20 -10z"/>
<path d="M1494 3034 c-43 -36 -81 -71 -83 -77 -5 -13 50 30 124 97 74 67 50
55 -41 -20z"/>
<path d="M2012 1885 c0 -16 2 -22 5 -12 2 9 2 23 0 30 -3 6 -5 -1 -5 -18z"/>
<path d="M3513 2253 c76 -2 198 -2 270 0 73 1 11 3 -138 3 -148 0 -208 -2
-132 -3z"/>
<path d="M3611 2228 c-1 -16 -15 -18 -128 -20 -71 -1 -102 -3 -70 -5 41 -3 57
-8 57 -18 0 -11 -12 -15 -44 -15 -63 0 -78 -18 -74 -89 l3 -56 63 -3 c50 -2
62 0 62 12 0 12 15 16 68 18 l67 3 3 73 3 73 37 -3 37 -3 3 -60 c5 -103 5
-104 -91 -108 l-82 -3 93 -2 92 -2 0 95 0 95 -44 0 c-34 0 -46 4 -49 18 -4 16
-5 16 -6 0z m-6 -48 c0 -19 -102 -27 -119 -10 -18 18 13 30 69 28 37 -2 50 -7
50 -18z m-151 -26 c12 -5 16 -21 16 -66 l0 -59 -52 3 -53 3 0 53 c1 35 6 56
15 62 17 11 51 13 74 4z m149 -42 c0 -18 -3 -35 -5 -37 -1 -1 -26 -6 -54 -10
l-52 -7 -4 42 c-2 22 -1 43 1 46 3 3 30 4 61 2 l55 -3 -2 -33z"/>
<path d="M3754 2216 c-3 -7 -4 -40 -2 -72 l3 -59 70 -1 70 -1 -62 4 -63 4 0
64 0 64 63 4 62 3 -68 2 c-49 1 -69 -2 -73 -12z"/>
<path d="M3818 2143 c18 -2 45 -2 60 0 15 2 0 4 -33 4 -33 0 -45 -2 -27 -4z"/>
<path d="M3408 1953 c34 -2 90 -2 125 0 34 2 6 3 -63 3 -69 0 -97 -1 -62 -3z"/>
<path d="M3693 1933 c9 -2 23 -2 30 0 6 3 -1 5 -18 5 -16 0 -22 -2 -12 -5z"/>
<path d="M3408 1913 c34 -2 90 -2 125 0 34 2 6 3 -63 3 -69 0 -97 -1 -62 -3z"/>
<path d="M3408 1873 c34 -2 90 -2 125 0 34 2 6 3 -63 3 -69 0 -97 -1 -62 -3z"/>
<path d="M3463 1783 c53 -2 141 -2 195 0 53 1 9 3 -98 3 -107 0 -151 -2 -97
-3z"/>
<path d="M3415 1740 c25 -11 212 -11 280 0 35 5 -3 8 -125 8 -106 0 -167 -3
-155 -8z"/>
<path d="M3458 1643 c34 -2 90 -2 125 0 34 2 6 3 -63 3 -69 0 -97 -1 -62 -3z"/>
<path d="M3620 1621 c0 -8 119 -3 129 5 2 2 -26 4 -62 4 -37 0 -67 -4 -67 -9z"/>
<path d="M3117 4592 c-34 -38 -7 -112 42 -112 56 0 92 78 53 113 -25 22 -75
21 -95 -1z"/>
<path d="M2315 4445 c-189 -36 -351 -127 -488 -275 -62 -68 -155 -205 -145
-216 3 -2 24 26 46 64 23 38 74 104 113 146 167 179 358 268 614 285 l120 8
-95 1 c-52 0 -126 -6 -165 -13z"/>
<path d="M4190 4395 c-27 -15 -38 -25 -26 -25 17 0 86 36 86 46 0 8 -15 2 -60
-21z"/>
<path d="M4090 4390 c0 -5 -7 -10 -15 -10 -8 0 -15 -4 -15 -10 0 -5 9 -10 20
-10 15 0 20 -7 20 -25 0 -22 -4 -24 -57 -28 -32 -2 -2 -3 67 -3 69 0 97 1 63
3 l-63 4 0 44 c0 25 -4 45 -10 45 -5 0 -10 -4 -10 -10z"/>
<path d="M1373 4383 c-18 -7 -16 -48 2 -63 21 -17 65 2 65 28 0 33 -31 50 -67
35z"/>
<path d="M3440 4307 c-38 -19 -63 -76 -49 -115 13 -38 93 -92 135 -91 24 1 22
3 -14 11 -55 12 -112 67 -112 108 0 37 35 76 80 89 29 8 31 9 10 10 -14 0 -36
-5 -50 -12z"/>
<path d="M3464 4224 c-16 -24 -16 -26 4 -46 18 -19 25 -20 47 -10 31 14 34 56
6 72 -29 15 -39 13 -57 -16z m60 -10 c8 -21 -1 -34 -24 -34 -22 0 -34 15 -26
35 7 20 42 19 50 -1z"/>
<path d="M2505 4214 c-101 -17 -234 -58 -222 -70 2 -3 22 2 43 10 159 61 371
66 528 11 38 -13 72 -23 74 -20 6 6 -64 34 -128 51 -56 15 -241 26 -295 18z"/>
<path d="M368 4182 c-10 -2 -18 -12 -18 -23 0 -14 -7 -19 -25 -19 -14 0 -34
-9 -45 -20 -19 -19 -20 -33 -20 -440 0 -231 3 -420 8 -420 4 0 7 189 7 421 0
405 1 421 19 435 11 8 30 14 43 14 16 0 23 6 23 20 0 20 7 20 355 20 258 0
355 3 355 11 0 9 -91 11 -342 8 -189 -2 -351 -5 -360 -7z"/>
<path d="M805 4130 l-400 -5 535 -2 c306 -1 526 2 515 7 -11 5 -72 8 -135 7
-63 -1 -295 -4 -515 -7z"/>
<path d="M2981 4126 c-26 -31 14 -71 45 -45 21 17 14 53 -12 57 -11 2 -26 -4
-33 -12z m34 -16 c3 -5 -1 -10 -10 -10 -9 0 -13 5 -10 10 3 6 8 10 10 10 2 0
7 -4 10 -10z"/>
<path d="M3405 4040 c4 -6 59 -10 138 -9 199 2 218 16 24 18 -111 1 -166 -2
-162 -9z"/>
<path d="M527 3933 c73 -2 193 -2 266 0 72 1 13 3 -133 3 -146 0 -205 -2 -133
-3z"/>
<path d="M405 3900 c8 -14 842 -14 850 0 4 7 -140 10 -425 10 -285 0 -429 -3
-425 -10z"/>
<path d="M1372 3888 c-15 -19 -49 -127 -56 -178 -4 -35 -1 -30 14 24 10 39 26
90 36 114 l17 44 47 -4 c26 -3 67 -14 91 -26 24 -12 45 -19 47 -17 3 3 -19 16
-49 30 -58 27 -130 33 -147 13z"/>
<path d="M3768 3855 c52 -26 66 -43 89 -100 9 -24 12 -26 12 -9 2 46 -67 118
-124 129 -22 4 -16 -1 23 -20z"/>
<path d="M523 3863 c70 -2 184 -2 255 0 70 1 12 3 -128 3 -140 0 -198 -2 -127
-3z"/>
<path d="M998 3863 c28 -2 76 -2 105 0 28 2 5 3 -53 3 -58 0 -81 -1 -52 -3z"/>
<path d="M1613 3830 c-120 -73 -55 -253 86 -237 36 4 52 13 78 41 100 109 -37
274 -164 196z m126 -14 c33 -18 51 -54 51 -105 0 -54 -52 -101 -111 -101 -80
0 -135 91 -98 163 28 54 98 73 158 43z"/>
<path d="M3640 3821 c-8 -6 -17 -8 -21 -5 -10 6 -48 -44 -55 -73 -4 -14 2 -36
15 -59 16 -26 19 -40 12 -47 -19 -19 -12 -43 15 -56 19 -8 30 -9 39 -1 9 8 15
8 20 0 12 -20 92 -12 120 13 l26 22 -25 24 c-23 22 -24 25 -9 47 15 23 14 27
-12 65 -16 22 -35 44 -44 49 -9 5 -11 10 -6 10 6 0 3 5 -5 10 -19 12 -51 12
-70 1z m20 -36 c-12 -13 -28 -22 -34 -18 -6 3 2 -8 19 -26 l30 -32 -25 -19
c-33 -26 -46 -25 -66 5 -13 20 -14 30 -4 60 6 19 18 36 26 37 8 0 20 1 27 2 6
1 18 7 26 14 24 23 25 3 1 -23z m77 -17 c38 -41 45 -61 29 -84 -12 -16 -17
-14 -65 26 -43 37 -49 45 -38 59 30 39 36 39 74 -1z m-28 -82 l22 -23 -35 -26
-34 -26 -27 20 -26 21 29 18 c17 10 33 23 36 29 9 15 9 15 35 -13z m65 -55
c16 -18 16 -20 -6 -35 -25 -18 -66 -21 -88 -6 -13 9 -13 11 0 19 8 6 24 17 35
25 27 20 38 20 59 -3z m-144 -16 c7 -9 10 -18 7 -21 -10 -11 -37 5 -37 21 0
19 14 19 30 0z"/>
<path d="M400 3793 c0 -5 60 -7 132 -5 242 4 265 8 66 10 -109 1 -198 -1 -198
-5z"/>
<path d="M4104 3772 c-6 -4 -18 -18 -27 -32 -15 -22 -17 -72 -17 -536 0 -460
2 -513 16 -525 19 -16 79 -18 224 -9 l105 7 -156 1 c-105 1 -159 6 -167 14 -9
9 -12 138 -12 520 l0 509 26 26 c24 24 29 39 8 25z"/>
<path d="M4180 3763 c0 -5 126 -7 280 -5 184 2 287 -1 300 -8 20 -11 20 -22
20 -716 l0 -705 -25 -24 c-23 -24 -29 -25 -160 -25 -95 0 -135 -3 -135 -12 0
-8 38 -9 141 -5 128 5 144 8 165 28 l24 22 0 717 c0 543 -3 719 -12 728 -14
14 -598 18 -598 5z"/>
<path d="M400 3749 c0 -5 74 -9 182 -9 100 0 179 2 177 4 -10 9 -359 14 -359
5z"/>
<path d="M397 3713 c-3 -5 23 -7 56 -5 111 5 124 9 35 10 -48 1 -89 -1 -91 -5z"/>
<path d="M858 3713 c34 -2 90 -2 125 0 34 2 6 3 -63 3 -69 0 -97 -1 -62 -3z"/>
<path d="M4126 3708 c3 -4 129 -8 281 -8 152 0 274 2 272 4 -8 9 -558 12 -553
4z"/>
<path d="M533 3665 c-88 -44 -132 -121 -133 -234 0 -70 23 -133 61 -167 21
-19 22 -19 80 45 l58 63 86 -78 c47 -42 85 -80 85 -84 0 -15 -66 -35 -110 -33
-25 1 -94 4 -153 6 -59 2 -112 8 -118 14 -6 6 -9 88 -7 216 2 114 0 207 -4
207 -14 0 -9 -425 4 -438 8 -8 46 -12 103 -12 49 0 108 -5 130 -10 92 -22 201
29 258 122 35 56 47 153 27 213 -13 40 -84 125 -104 125 -14 0 -176 -161 -176
-175 0 -5 40 30 88 78 l88 87 31 -32 c90 -93 86 -243 -7 -333 l-30 -29 -58 55
c-31 30 -74 70 -95 89 l-37 34 -59 -58 c-33 -33 -64 -55 -70 -52 -27 17 -51
86 -51 148 1 102 44 179 124 220 33 17 53 20 119 16 69 -4 76 -3 56 8 -41 23
-129 17 -186 -11z"/>
<path d="M4223 3653 c65 -2 168 -2 230 0 62 1 9 3 -118 3 -126 0 -177 -2 -112
-3z"/>
<path d="M4406 3623 l280 -3 -4 -143 c-2 -78 1 -167 6 -197 8 -44 10 -16 11
148 l1 202 -287 -2 -288 -3 281 -2z"/>
<path d="M4270 3529 c209 -11 377 -10 360 1 -9 6 -114 9 -255 8 -225 -1 -232
-2 -105 -9z"/>
<path d="M4393 3483 c37 -2 97 -2 135 0 37 2 6 3 -68 3 -74 0 -105 -1 -67 -3z"/>
<path d="M4378 3433 c28 -2 76 -2 105 0 28 2 5 3 -53 3 -58 0 -81 -1 -52 -3z"/>
<path d="M4283 3383 c53 -2 141 -2 195 0 53 1 9 3 -98 3 -107 0 -151 -2 -97
-3z"/>
<path d="M4298 3333 c56 -2 148 -2 205 0 56 1 10 3 -103 3 -113 0 -159 -2
-102 -3z"/>
<path d="M4278 3283 c50 -2 134 -2 185 0 50 1 9 3 -93 3 -102 0 -143 -2 -92
-3z"/>
<path d="M2897 3225 c36 -66 35 -156 -4 -234 -53 -106 -84 -74 -93 99 l-7 115
-1 -108 c-3 -149 28 -217 77 -172 62 55 84 212 43 298 -13 26 -28 47 -32 47
-5 0 3 -20 17 -45z"/>
<path d="M4200 3240 c-25 -5 43 -6 150 -3 107 3 197 7 199 9 8 7 -303 1 -349
-6z"/>
<path d="M4255 3120 c253 -11 423 -11 430 0 4 7 -95 9 -292 8 -272 -1 -284 -2
-138 -8z"/>
<path d="M3437 3073 l53 -4 -6 -77 c-17 -232 -57 -411 -121 -535 -49 -93 -51
-101 -17 -53 68 98 122 287 143 510 18 178 21 166 -46 164 l-58 -2 52 -3z"/>
<path d="M4323 3073 c26 -2 67 -2 90 0 23 2 2 3 -48 3 -49 0 -68 -1 -42 -3z"/>
<path d="M377 3043 c-4 -3 -6 -133 -5 -287 l3 -281 5 280 5 280 288 3 c158 1
288 1 289 0 1 -2 5 -131 8 -288 l6 -285 2 277 c1 152 -1 283 -4 292 -5 14 -41
16 -298 16 -161 0 -296 -3 -299 -7z"/>
<path d="M4188 2973 c29 -2 74 -2 100 0 26 2 2 3 -53 3 -55 0 -76 -1 -47 -3z"/>
<path d="M595 2920 l-180 -6 238 -2 c153 -1 237 2 237 8 0 6 -24 9 -57 8 -32
-1 -139 -5 -238 -8z"/>
<path d="M4258 2903 c61 -2 163 -2 225 0 61 1 11 3 -113 3 -124 0 -174 -2
-112 -3z"/>
<path d="M4638 2903 c12 -2 30 -2 40 0 9 3 -1 5 -23 4 -22 0 -30 -2 -17 -4z"/>
<path d="M4298 2863 c56 -2 148 -2 205 0 56 1 10 3 -103 3 -113 0 -159 -2
-102 -3z"/>
<path d="M4408 2803 l282 -3 0 -225 0 -224 -97 -4 -98 -3 103 -2 102 -2 -2
233 -3 232 -285 0 -285 0 283 -2z"/>
<path d="M548 2773 c67 -2 177 -2 245 0 67 1 12 3 -123 3 -135 0 -190 -2 -122
-3z"/>
<path d="M4530 2728 c0 -9 18 -36 40 -60 22 -24 45 -60 52 -81 6 -20 13 -35
16 -33 9 10 -22 80 -49 111 -27 30 -28 35 -13 43 17 9 12 32 -7 32 -6 0 -7 -4
-4 -10 3 -5 3 -15 -1 -21 -4 -8 -12 -3 -20 12 -10 18 -13 20 -14 7z"/>
<path d="M533 2723 c59 -2 155 -2 215 0 59 1 10 3 -108 3 -118 0 -167 -2 -107
-3z"/>
<path d="M4420 2650 c0 -11 4 -20 9 -20 5 0 7 9 4 20 -3 11 -7 20 -9 20 -2 0
-4 -9 -4 -20z"/>
<path d="M4495 2650 c-10 -11 -16 -22 -13 -25 3 -3 13 6 22 20 20 30 16 32 -9
5z"/>
<path d="M538 2633 c67 -2 177 -2 245 0 67 1 12 3 -123 3 -135 0 -190 -2 -122
-3z"/>
<path d="M1197 2593 c-37 -20 -66 -38 -63 -40 5 -5 146 65 146 72 0 10 -16 4
-83 -32z"/>
<path d="M4456 2592 c-29 -56 -6 -143 37 -141 l22 0 -22 9 c-22 9 -43 39 -43
61 0 8 7 6 19 -5 11 -10 26 -16 33 -13 9 4 7 6 -4 6 -34 2 -29 21 6 21 25 0
36 -4 36 -15 0 -8 -6 -15 -12 -15 -9 0 -9 -3 1 -9 8 -5 12 -18 8 -30 -11 -42
41 -17 74 36 16 25 19 38 11 41 -7 2 -12 14 -12 27 0 26 -23 49 -42 42 -9 -4
-7 -6 3 -6 9 -1 20 -8 23 -17 12 -31 6 -44 -19 -44 -22 0 -25 4 -25 35 0 29
-4 35 -22 36 -13 0 -31 2 -41 4 -11 2 -22 -7 -31 -23z m45 -4 c0 -10 2 -10 6
0 9 23 33 13 33 -15 0 -26 -3 -28 -45 -31 -50 -3 -50 -3 -33 33 12 26 37 34
39 13z m79 -62 c0 -2 -7 -9 -15 -16 -12 -10 -15 -10 -15 4 0 9 7 16 15 16 8 0
15 -2 15 -4z m30 -5 c0 -13 -40 -61 -51 -61 -16 0 -10 23 13 47 22 24 38 30
38 14z"/>
<path d="M430 2593 c0 -5 53 -7 117 -5 211 4 231 8 56 10 -95 1 -173 -1 -173
-5z"/>
<path d="M552 2553 c65 -2 171 -2 236 0 64 1 11 3 -118 3 -129 0 -182 -2 -118
-3z"/>
<path d="M533 2513 c59 -2 154 -2 210 0 56 1 8 3 -108 3 -115 0 -161 -2 -102
-3z"/>
<path d="M3277 2456 c-26 -42 -101 -118 -162 -164 l-30 -23 34 18 c62 33 206
191 190 208 -3 2 -17 -15 -32 -39z"/>
<path d="M557 2473 c73 -2 193 -2 266 0 72 1 13 3 -133 3 -146 0 -205 -2 -133
-3z"/>
<path d="M4533 2393 c20 -2 54 -2 75 0 20 2 3 4 -38 4 -41 0 -58 -2 -37 -4z"/>
<path d="M551 2287 c-46 -16 -73 -56 -79 -115 -4 -41 2 -62 32 -129 20 -44 36
-84 36 -87 0 -15 -57 -58 -106 -80 -28 -13 -64 -40 -80 -60 -27 -34 -33 -36
-84 -36 -63 0 -95 -17 -104 -55 -10 -38 12 -104 45 -137 18 -18 29 -40 29 -56
0 -15 26 -154 57 -310 48 -235 56 -286 45 -302 -14 -23 -15 -59 -3 -79 5 -7
35 -16 67 -20 52 -5 59 -9 62 -29 2 -13 -2 -29 -8 -37 -16 -19 -3 -55 21 -55
10 0 19 -3 19 -7 0 -4 -46 -130 -102 -280 l-101 -273 -94 0 c-68 0 -93 -3 -93
-12 0 -10 151 -12 730 -11 401 2 731 6 733 10 1 5 -80 9 -180 11 l-183 2 0
485 0 485 204 0 204 0 6 -187 c3 -104 13 -307 22 -453 9 -146 15 -278 13 -294
-6 -42 -27 -44 -33 -4 -11 76 -27 347 -32 538 -3 113 -10 218 -16 233 -6 15
-23 34 -37 41 -48 25 -155 65 -215 80 -33 8 -63 21 -67 28 -6 8 -9 2 -9 -18 0
-31 1 -31 61 -38 85 -8 113 -24 117 -63 2 -19 -25 -118 -67 -250 -105 -327
-133 -448 -116 -503 7 -21 12 -22 76 -18 46 2 74 9 85 20 24 24 9 55 -34 69
-20 7 -43 20 -50 31 -7 10 -20 18 -28 18 -8 0 -14 5 -14 11 0 30 130 449 140
449 3 0 16 -42 29 -94 24 -97 25 -122 4 -305 l-6 -54 61 7 c75 8 79 4 93 -127
6 -51 13 -95 17 -99 12 -12 236 -12 240 1 3 8 -24 11 -85 11 l-88 0 -2 115
c-2 64 -7 164 -13 223 -6 59 -13 224 -17 368 l-6 261 21 5 c17 5 22 14 22 42
0 30 4 36 21 36 12 0 23 8 26 20 4 17 14 20 53 20 68 0 98 31 64 64 -11 12
-36 16 -97 16 l-82 0 72 151 c40 83 73 161 73 175 l0 24 -139 0 c-164 0 -145
13 -216 -149 l-47 -108 -39 21 c-21 12 -39 26 -39 32 0 6 -10 19 -21 30 l-22
19 17 -33 17 -33 -28 3 c-27 3 -28 5 -31 66 -2 34 -7 62 -12 62 -6 0 -10 -6
-10 -12 0 -7 -10 -37 -22 -65 -20 -45 -27 -53 -50 -53 -16 0 -28 4 -28 9 0 5
14 43 30 84 19 48 29 91 29 119 -2 32 -3 36 -6 13 -4 -33 -43 -158 -48 -153
-1 2 2 34 7 72 7 43 7 93 1 136 -8 61 -7 68 7 60 8 -4 33 -44 55 -87 53 -106
127 -221 132 -206 3 7 -13 43 -35 80 -22 37 -56 100 -76 140 -20 40 -49 82
-65 94 -35 26 -32 58 5 51 29 -5 64 22 64 49 0 10 8 34 17 54 14 29 15 40 5
55 -15 24 -16 76 -2 85 5 3 10 17 10 30 0 62 -194 111 -266 66 -37 -23 -66
-80 -72 -143 -4 -40 -1 -50 22 -73 20 -20 34 -26 54 -22 24 4 25 3 8 -7 -47
-29 -66 -49 -66 -72 0 -17 -6 -24 -19 -24 -10 0 -34 -11 -53 -24 l-35 -23 -27
33 c-15 19 -35 34 -45 34 -17 0 -51 29 -51 43 0 4 10 7 23 7 37 0 47 19 47 90
0 37 5 71 12 78 9 9 9 17 0 34 -20 40 -17 62 11 90 55 55 34 73 -83 73 -47 0
-101 4 -120 7 -21 5 -49 3 -69 -5z m222 -139 c-2 -5 1 -8 6 -8 6 0 11 -4 11
-10 0 -5 -7 -10 -15 -10 -11 0 -15 11 -14 38 0 29 2 33 8 17 5 -11 7 -23 4
-27z m427 17 c17 -9 30 -18 30 -21 0 -4 -59 23 -69 32 -10 9 13 3 39 -11z
m-482 -47 c7 -7 12 -21 11 -32 0 -17 -2 -16 -11 7 -5 15 -14 27 -19 27 -13 0
-11 -54 3 -68 7 -7 8 -12 2 -12 -17 0 -34 23 -34 45 0 20 17 45 30 45 3 0 11
-5 18 -12z m65 -21 c4 -12 -11 -105 -20 -116 -8 -11 -33 25 -33 50 0 59 38
106 53 66z m457 -32 c0 -35 -13 -45 -57 -45 l-25 0 31 35 c17 20 31 40 31 46
0 6 5 7 10 4 6 -3 10 -21 10 -40z m-538 -101 c3 -50 2 -51 -17 -38 -10 8 -45
19 -77 25 -61 12 -69 29 -13 29 22 0 44 9 62 24 15 14 31 22 35 18 3 -4 8 -30
10 -58z m558 30 c0 -8 -7 -14 -15 -14 -15 0 -21 21 -9 33 10 9 24 -2 24 -19z
m-149 -26 c15 -30 23 -37 29 -28 5 8 4 22 -1 31 -15 29 -10 39 19 39 45 0 59
-16 26 -29 l-29 -11 32 4 c44 7 58 -12 43 -60 -12 -35 -13 -36 -51 -30 -33 5
-39 3 -39 -11 -1 -10 -11 -37 -23 -61 l-23 -43 -20 23 c-49 56 -49 57 -22 86
38 42 57 77 49 91 -6 9 -10 8 -15 -5 -6 -16 -8 -16 -16 -4 -15 23 -12 50 5 50
8 0 24 -19 36 -42z m-424 -73 l28 -15 -38 6 c-21 4 -57 13 -80 20 l-42 14 52
-4 c29 -3 65 -12 80 -21z m19 -36 c73 -15 93 -32 156 -139 63 -106 113 -179
175 -254 l49 -59 72 2 72 2 0 -45 0 -46 -91 0 c-62 0 -101 5 -125 16 -18 9
-75 62 -125 117 -86 95 -181 187 -192 187 -2 0 6 -21 18 -47 13 -27 45 -122
73 -213 28 -91 65 -199 82 -240 69 -162 71 -171 59 -186 -18 -22 -171 -19
-192 4 -8 10 -27 79 -42 162 -15 80 -42 219 -60 310 -18 91 -37 187 -40 215
-15 108 -47 135 -159 135 l-80 0 29 30 c16 17 50 37 75 45 56 17 167 19 246 4z
m334 -70 c22 -28 40 -54 40 -59 0 -12 -50 -19 -56 -8 -8 12 -33 118 -28 118 2
0 22 -23 44 -51z m-62 24 c16 -30 24 -100 13 -107 -6 -4 -22 16 -36 44 -14 27
-28 50 -31 50 -2 0 -1 -8 5 -17 10 -20 44 -95 45 -103 1 -3 9 -16 18 -30 20
-29 53 -104 63 -140 l6 -25 -21 25 c-11 14 -53 79 -92 144 l-71 120 32 28 c36
32 56 35 69 11z m162 -47 c0 -13 3 -31 6 -40 8 -20 -6 -21 -31 -2 -18 13 -18
17 -6 40 18 33 31 33 31 2z m-611 -42 c12 -15 21 -34 21 -43 0 -9 -11 0 -25
21 l-25 37 -133 4 -132 3 137 2 137 2 20 -26z m506 -76 c19 -67 19 -71 -6 -25
-11 20 -24 37 -29 37 -6 0 -10 9 -10 20 0 41 29 20 45 -32z m64 15 c13 -24 20
-31 21 -20 0 10 -5 27 -10 38 -8 14 -7 19 2 19 34 -1 40 -16 33 -87 -4 -38
-10 -75 -14 -81 -7 -11 -71 98 -86 146 -5 18 -2 22 14 22 14 0 27 -13 40 -37z
m690 -50 c-6 -16 -41 -89 -77 -163 l-67 -135 -125 -1 c-77 -1 -112 1 -90 6 32
7 32 7 7 9 l-27 1 29 58 c15 31 48 101 71 155 l43 97 123 0 123 0 -10 -27z
m-1221 -56 c15 -18 104 -422 108 -492 l3 -60 -11 45 c-5 25 -32 143 -59 264
-27 120 -54 225 -60 232 -8 10 -50 14 -158 17 l-146 3 156 2 c115 1 159 -1
167 -11z m547 -71 c19 -45 19 -46 -5 -46 -23 0 -26 6 -34 75 -6 47 -5 49 9 28
9 -13 22 -38 30 -57z m-245 -64 c0 -2 -9 -2 -21 1 -16 4 -18 3 -8 -9 6 -8 19
-14 29 -14 10 0 34 -20 54 -45 l37 -45 -60 0 -60 0 -27 88 c-15 48 -29 94 -32
102 -3 8 16 -5 42 -30 25 -24 46 -46 46 -48z m501 -22 c10 -6 19 -16 19 -22 0
-9 -3 -9 -12 0 -7 7 -19 12 -27 12 -12 0 -12 -3 -3 -12 7 -7 12 -19 12 -27 -1
-11 -8 -8 -25 12 -16 18 -34 27 -55 27 -16 0 -30 5 -30 10 0 13 96 13 121 0z
m-50 -51 c13 -25 -7 -26 -34 -1 -19 17 -20 16 -13 -10 5 -21 3 -28 -8 -28 -11
0 -13 7 -6 29 4 16 6 31 4 34 -3 2 7 2 21 -1 14 -2 30 -13 36 -23z m509 -78
c0 -12 -51 -18 -140 -17 -41 1 -247 2 -457 4 -247 1 -383 6 -383 12 0 7 170
10 490 10 279 0 490 -4 490 -9z m-120 -51 c0 -14 -837 -14 -845 0 -4 7 138 10
419 10 277 0 426 -3 426 -10z m-522 -87 c2 -24 -1 -43 -6 -43 -19 0 -276 41
-282 45 -4 3 -10 14 -13 25 -5 20 -2 20 146 18 l152 -3 3 -42z m342 -177 c25
-11 25 -13 31 -171 4 -88 10 -209 13 -270 l7 -110 -21 50 c-28 67 -78 225 -95
297 -13 58 -13 59 13 89 l26 32 -33 -17 c-18 -10 -34 -16 -36 -14 -2 2 4 33
13 70 18 73 19 73 82 44z m-507 -91 c-6 -24 -633 -29 -656 -6 -7 7 32 8 109 5
65 -3 202 -1 304 4 216 11 246 11 243 -3z m95 -64 c-14 -16 -42 -59 -64 -95
-45 -77 -49 -74 -62 50 l-8 74 79 0 79 0 -24 -29z m-559 -168 c-11 -38 -50
-157 -86 -266 -36 -109 -63 -201 -59 -204 16 -16 38 37 122 280 l89 258 29 -3
c28 -3 29 -5 53 -118 13 -63 24 -122 25 -130 1 -8 -11 -48 -26 -88 -26 -67
-29 -111 -7 -97 5 3 17 31 27 63 l17 57 23 -115 c12 -63 23 -118 23 -122 1 -5
-102 -8 -229 -8 -126 0 -230 1 -230 3 0 2 30 80 66 173 84 216 124 332 124
361 0 19 5 23 29 23 l29 0 -19 -67z m236 26 c-8 -23 -15 -56 -15 -73 -1 -17
-7 -44 -14 -61 -12 -28 -13 -26 -33 73 l-20 102 48 0 48 0 -14 -41z m189 19
c12 -46 5 -79 -23 -119 l-30 -41 -40 81 c-23 44 -41 85 -41 91 0 6 27 10 64
10 58 0 64 -2 70 -22z m-112 -125 c38 -81 40 -89 27 -112 -8 -14 -22 -27 -31
-29 -13 -2 -18 13 -27 80 -15 117 -18 148 -14 148 3 0 23 -39 45 -87z m308
-70 l0 -146 -24 22 c-18 17 -32 22 -50 17 -28 -7 -31 -2 -41 83 l-7 53 58 59
c32 32 60 59 61 59 2 0 3 -66 3 -147z m343 -30 c9 -35 17 -65 17 -68 0 -3 -14
-5 -31 -5 l-32 0 7 53 c3 28 6 63 6 77 0 37 15 12 33 -57z m-708 -10 c4 -41 2
-68 -8 -92 l-15 -34 -11 52 c-14 65 -14 74 1 106 17 38 25 31 33 -32z m171
-65 c21 -41 18 -50 -13 -34 -59 31 -66 39 -52 69 12 26 13 26 32 10 10 -10 25
-30 33 -45z m-153 -116 c12 1 28 -1 36 -6 7 -5 45 -11 84 -14 57 -4 71 -8 74
-23 5 -16 15 -19 63 -19 74 0 90 -6 90 -36 l0 -24 -182 2 -182 3 -12 65 c-16
81 -16 90 -3 67 6 -11 20 -17 32 -15z m306 -8 c10 -9 -35 -3 -49 6 -11 8 -7 9
15 4 17 -4 32 -8 34 -10z"/>
<path d="M1583 1480 c-23 -9 -40 -51 -28 -69 21 -34 89 8 83 51 -3 25 -22 32
-55 18z m40 -16 c10 -11 -11 -41 -33 -47 -30 -8 -36 14 -10 35 24 19 33 22 43
12z"/>
<path d="M3005 2190 c-82 -40 -166 -60 -250 -61 -49 0 -64 -3 -50 -9 45 -20
223 13 304 55 97 51 94 61 -4 15z"/>
<path d="M4480 2151 c14 -4 79 -4 145 -1 l120 7 -145 0 c-80 1 -134 -2 -120
-6z"/>
<path d="M4533 2103 c43 -2 110 -2 150 0 40 1 5 3 -78 3 -82 0 -115 -2 -72 -3z"/>
<path d="M1457 2029 c-30 -23 -51 -86 -41 -124 4 -17 2 -25 -7 -25 -7 0 -3
-10 11 -25 27 -28 52 -35 27 -7 -10 10 -17 29 -16 43 0 24 0 24 11 2 13 -28
60 -47 94 -39 44 12 84 59 84 101 0 78 -101 124 -163 74z m103 -4 c57 -30 63
-95 13 -135 -49 -38 -132 -15 -134 38 0 15 -2 14 -10 -3 -8 -17 -8 -16 -4 7 9
48 23 76 47 92 28 20 51 20 88 1z"/>
<path d="M1360 2021 c0 -11 31 -24 39 -16 3 3 -1 10 -9 15 -19 12 -30 12 -30
1z"/>
<path d="M1620 2012 c0 -12 19 -26 26 -19 2 2 -2 10 -11 17 -9 8 -15 8 -15 2z"/>
<path d="M1670 1905 c0 -7 156 -81 190 -90 43 -12 9 10 -45 30 -27 9 -69 28
-92 41 -43 25 -53 28 -53 19z"/>
<path d="M1288 919 c-21 -11 -38 -24 -38 -29 0 -7 78 30 99 47 15 11 -31 -1
-61 -18z"/>
</g>
</svg>